<svg xmlns="http://www.w3.org/2000/svg" width="36.961" height="53.802" viewBox="0 0 36.961 53.802">
  <g id="bioengineering" transform="translate(0.478 0.3)">
    <path id="Path_15029" data-name="Path 15029" d="M32.195,20.1C24.985,9.511,18.926.546,18.865.457a1.039,1.039,0,0,0-1.722,0c-.06.089-6.12,9.054-13.329,19.64C-.519,26.46-1.2,33.86,1.987,39.891a17.491,17.491,0,0,0,14.992,9.126v3.144a1.039,1.039,0,1,0,2.078,0V49.016a17.487,17.487,0,0,0,14.965-9.125c3.19-6.032,2.507-13.432-1.827-19.8Zm-.01,18.824a15.431,15.431,0,0,1-13.128,8.016V41.7L27,36.32a1.039,1.039,0,0,0,.456-.86V32.585a3.183,3.183,0,1,0-2.078,0v2.324l-6.319,4.284V28.117a1.039,1.039,0,1,0-2.078,0v8.167L10.66,32V29.675a3.183,3.183,0,1,0-2.078,0v2.875a1.039,1.039,0,0,0,.456.86l7.941,5.383v8.143A15.434,15.434,0,0,1,3.824,38.92C1,33.582,1.639,26.982,5.532,21.266,11.156,13.008,16.08,5.737,18,2.893c1.924,2.844,6.849,10.115,12.472,18.373,3.893,5.716,4.531,12.316,1.708,17.654Zm-5.77-8.239a1.106,1.106,0,1,1,1.106-1.106,1.107,1.107,0,0,1-1.106,1.106ZM9.621,27.772a1.105,1.105,0,1,1,1.106-1.105A1.107,1.107,0,0,1,9.621,27.772Zm0,0" transform="translate(-0.002 0)" fill="#ff8080" stroke="#ff8080" stroke-width="0.6"/>
    <path id="Path_15030" data-name="Path 15030" d="M142.238,131.059a3.613,3.613,0,1,0,3.613,3.613A3.617,3.617,0,0,0,142.238,131.059Zm0,5.147a1.534,1.534,0,1,1,1.535-1.534A1.536,1.536,0,0,1,142.238,136.206Zm0,0" transform="translate(-124.222 -117.441)" fill="#ff8080" stroke="#ff8080" stroke-width="0.6"/>
    <path id="Path_15031" data-name="Path 15031" d="M164.43,220.59a1.039,1.039,0,1,0,.735.3A1.047,1.047,0,0,0,164.43,220.59Zm0,0" transform="translate(-146.414 -197.669)" fill="#ff8080" stroke="#ff8080" stroke-width="0.6"/>
  </g>
</svg>
