<svg id="calendar" xmlns="http://www.w3.org/2000/svg" width="22.216" height="22.216" viewBox="0 0 22.216 22.216">
  <g id="Group_9666" data-name="Group 9666">
    <g id="Group_9665" data-name="Group 9665">
      <path id="Path_15038" data-name="Path 15038" d="M19.612,1.736H18.571V0H16.835V1.736H5.38V0H3.645V1.736H2.6A2.606,2.606,0,0,0,0,4.339V19.612a2.606,2.606,0,0,0,2.6,2.6H19.612a2.606,2.606,0,0,0,2.6-2.6V4.339A2.606,2.606,0,0,0,19.612,1.736Zm.868,17.877a.869.869,0,0,1-.868.868H2.6a.869.869,0,0,1-.868-.868V8.157H20.48Zm0-13.191H1.736V4.339A.869.869,0,0,1,2.6,3.471H3.645V5.207H5.38V3.471H16.835V5.207h1.736V3.471h1.041a.869.869,0,0,1,.868.868Z" fill="#ff8080"/>
    </g>
  </g>
  <g id="Group_9668" data-name="Group 9668" transform="translate(3.137 10.193)">
    <g id="Group_9667" data-name="Group 9667" transform="translate(0 0)">
      <rect id="Rectangle_3899" data-name="Rectangle 3899" width="2" height="2" transform="translate(-0.138 -0.193)" fill="#ff8080"/>
    </g>
  </g>
  <g id="Group_9670" data-name="Group 9670" transform="translate(6.273 10.193)">
    <g id="Group_9669" data-name="Group 9669" transform="translate(0 0)">
      <rect id="Rectangle_3900" data-name="Rectangle 3900" width="3" height="2" transform="translate(-0.272 -0.193)" fill="#ff8080"/>
    </g>
  </g>
  <g id="Group_9672" data-name="Group 9672" transform="translate(10.194 10.193)">
    <g id="Group_9671" data-name="Group 9671" transform="translate(0 0)">
      <rect id="Rectangle_3901" data-name="Rectangle 3901" width="3" height="2" transform="translate(-0.193 -0.193)" fill="#ff8080"/>
    </g>
  </g>
  <g id="Group_9674" data-name="Group 9674" transform="translate(13.33 10.193)">
    <g id="Group_9673" data-name="Group 9673" transform="translate(0 0)">
      <rect id="Rectangle_3902" data-name="Rectangle 3902" width="3" height="2" transform="translate(-0.33 -0.193)" fill="#ff8080"/>
    </g>
  </g>
  <g id="Group_9676" data-name="Group 9676" transform="translate(17.25 10.193)">
    <g id="Group_9675" data-name="Group 9675" transform="translate(0 0)">
      <rect id="Rectangle_3903" data-name="Rectangle 3903" width="3" height="2" transform="translate(-0.25 -0.193)" fill="#ff8080"/>
    </g>
  </g>
  <g id="Group_9678" data-name="Group 9678" transform="translate(3.137 13.33)">
    <g id="Group_9677" data-name="Group 9677" transform="translate(0 0)">
      <rect id="Rectangle_3904" data-name="Rectangle 3904" width="2" height="2" transform="translate(-0.138 -0.33)" fill="#ff8080"/>
    </g>
  </g>
  <g id="Group_9680" data-name="Group 9680" transform="translate(6.273 13.33)">
    <g id="Group_9679" data-name="Group 9679" transform="translate(0 0)">
      <rect id="Rectangle_3905" data-name="Rectangle 3905" width="3" height="2" transform="translate(-0.272 -0.33)" fill="#ff8080"/>
    </g>
  </g>
  <g id="Group_9682" data-name="Group 9682" transform="translate(10.194 13.33)">
    <g id="Group_9681" data-name="Group 9681" transform="translate(0 0)">
      <rect id="Rectangle_3906" data-name="Rectangle 3906" width="3" height="2" transform="translate(-0.193 -0.33)" fill="#ff8080"/>
    </g>
  </g>
  <g id="Group_9684" data-name="Group 9684" transform="translate(13.33 13.33)">
    <g id="Group_9683" data-name="Group 9683" transform="translate(0 0)">
      <rect id="Rectangle_3907" data-name="Rectangle 3907" width="3" height="2" transform="translate(-0.33 -0.33)" fill="#ff8080"/>
    </g>
  </g>
  <g id="Group_9686" data-name="Group 9686" transform="translate(3.137 17.25)">
    <g id="Group_9685" data-name="Group 9685" transform="translate(0 0)">
      <rect id="Rectangle_3908" data-name="Rectangle 3908" width="2" height="2" transform="translate(-0.138 -0.25)" fill="#ff8080"/>
    </g>
  </g>
  <g id="Group_9688" data-name="Group 9688" transform="translate(6.273 17.25)">
    <g id="Group_9687" data-name="Group 9687" transform="translate(0 0)">
      <rect id="Rectangle_3909" data-name="Rectangle 3909" width="3" height="2" transform="translate(-0.272 -0.25)" fill="#ff8080"/>
    </g>
  </g>
  <g id="Group_9690" data-name="Group 9690" transform="translate(10.194 17.25)">
    <g id="Group_9689" data-name="Group 9689" transform="translate(0 0)">
      <rect id="Rectangle_3910" data-name="Rectangle 3910" width="3" height="2" transform="translate(-0.193 -0.25)" fill="#ff8080"/>
    </g>
  </g>
  <g id="Group_9692" data-name="Group 9692" transform="translate(13.33 17.25)">
    <g id="Group_9691" data-name="Group 9691" transform="translate(0 0)">
      <rect id="Rectangle_3911" data-name="Rectangle 3911" width="3" height="2" transform="translate(-0.33 -0.25)" fill="#ff8080"/>
    </g>
  </g>
  <g id="Group_9694" data-name="Group 9694" transform="translate(17.25 13.33)">
    <g id="Group_9693" data-name="Group 9693" transform="translate(0 0)">
      <rect id="Rectangle_3912" data-name="Rectangle 3912" width="3" height="2" transform="translate(-0.25 -0.33)" fill="#ff8080"/>
    </g>
  </g>
</svg>
