<svg id="handshake" xmlns="http://www.w3.org/2000/svg" width="65.933" height="62" viewBox="0 0 65.933 62">
  <path id="Path_15006" data-name="Path 15006" d="M60.4,19.478a19,19,0,0,0-27.437.683A18.936,18.936,0,1,0,6.014,46.72,6.638,6.638,0,0,0,9.743,58.053a6.642,6.642,0,0,0,6.588,7.07,6.633,6.633,0,0,0,8.282,5.946,6.639,6.639,0,0,0,11.076,2.956c2.025-2.013,3.636-3.283,3.739-6.332a6.644,6.644,0,0,0,6.294-6.373A6.641,6.641,0,0,0,52.1,54.944a6.646,6.646,0,0,0,6.381-6.789L60.4,46.232a18.94,18.94,0,0,0,0-26.755ZM8.914,49.8l1.806-1.806a2.394,2.394,0,0,1,3.386,3.386L12.3,53.185A2.394,2.394,0,0,1,8.914,49.8ZM13.95,58.5a2.379,2.379,0,0,1,.7-1.693L16.458,55a2.394,2.394,0,0,1,3.385,3.387L18.25,59.985a2.51,2.51,0,0,1-1.906.914A2.406,2.406,0,0,1,13.95,58.5Zm7.289,7.855a2.4,2.4,0,0,1,0-3.386l1.594-1.594a2.425,2.425,0,0,1,3.6-.212,2.4,2.4,0,0,1,0,3.386L24.625,66.36A2.4,2.4,0,0,1,21.239,66.36Zm13.267,2.869L32.7,71.035a2.394,2.394,0,0,1-3.386,0,2.4,2.4,0,0,1,0-3.386l1.806-1.806a2.394,2.394,0,1,1,3.386,3.386Zm19.045-19.2a2.4,2.4,0,0,1-3.386,0l-9.407-9.407L37.77,43.606l9.407,9.407A2.394,2.394,0,0,1,43.791,56.4l-9.247-9.247-.16-.16-2.989,2.989.16.16L40.8,59.388a2.394,2.394,0,1,1-3.386,3.386l0,0a6.624,6.624,0,0,0-6.286-1.64,6.653,6.653,0,0,0-6.376-4.893,6.646,6.646,0,0,0-5.737-6.105,6.636,6.636,0,0,0-9.834-6.229A14.72,14.72,0,1,1,29.975,23.15l-5.226,5.226,4.187,4.187a9.584,9.584,0,0,0,11.869,1.328L53.552,46.638a2.4,2.4,0,0,1,0,3.386Zm3.86-6.781-.644.644q-.11-.121-.227-.238L40.971,28.08l-1.495,1.495a5.346,5.346,0,0,1-7.552,0l-1.2-1.2,5.909-5.909C50.989,9.256,70.62,28.9,57.412,43.243Z" transform="translate(0 -13.955)" fill="#fff"/>
</svg>
