<svg xmlns="http://www.w3.org/2000/svg" width="51.6" height="51.6" viewBox="0 0 51.6 51.6">
  <g id="Layer_2" data-name="Layer 2" transform="translate(-2.7 -2.7)">
    <path id="Path_15032" data-name="Path 15032" d="M17.276,36a5.276,5.276,0,1,0,5.276,5.276A5.276,5.276,0,0,0,17.276,36Zm0,8.793a3.517,3.517,0,1,1,3.517-3.517A3.517,3.517,0,0,1,17.276,44.793Z" transform="translate(-1.086 -3.983)" fill="#ff8080" stroke="#ff8080" stroke-width="0.6"/>
    <path id="Path_15033" data-name="Path 15033" d="M16.19,31a13.19,13.19,0,1,0,13.19,13.19A13.19,13.19,0,0,0,16.19,31ZM10.1,53.862a6.155,6.155,0,0,1,12.17,0,11.308,11.308,0,0,1-12.17,0Zm13.717-1.169a7.914,7.914,0,0,0-15.265,0,11.431,11.431,0,1,1,15.265,0Z" transform="translate(0 -3.379)" fill="#ff8080" stroke="#ff8080" stroke-width="0.6"/>
    <path id="Path_15034" data-name="Path 15034" d="M45.276,18.552A5.276,5.276,0,1,0,40,13.276,5.276,5.276,0,0,0,45.276,18.552Zm0-8.793a3.517,3.517,0,1,1-3.517,3.517A3.517,3.517,0,0,1,45.276,9.759Z" transform="translate(-4.466 -0.603)" fill="#ff8080" stroke="#ff8080" stroke-width="0.6"/>
    <path id="Path_15035" data-name="Path 15035" d="M44.19,29.379A13.19,13.19,0,1,0,31,16.19a13.19,13.19,0,0,0,13.19,13.19ZM38.1,25.862a6.155,6.155,0,0,1,12.17,0,11.308,11.308,0,0,1-12.17,0Zm6.085-21.1a11.431,11.431,0,0,1,7.632,19.916,7.914,7.914,0,0,0-15.265,0A11.431,11.431,0,0,1,44.19,4.759Z" transform="translate(-3.379)" fill="#ff8080" stroke="#ff8080" stroke-width="0.6"/>
    <path id="Path_15036" data-name="Path 15036" d="M7.913,27.626a.879.879,0,0,0,1.213.246l2.638-1.759a.879.879,0,0,0-.308-1.609l-1.363-.273A19.345,19.345,0,0,1,24.163,10.163l.264,1.627A.879.879,0,0,0,26,12.167l1.891-2.612A.879.879,0,0,0,27.7,8.334L25.13,6.5a.879.879,0,0,0-1.389.879l.167,1.046A21.1,21.1,0,0,0,8.37,23.906l-1.31-.281a.879.879,0,0,0-.879,1.345Z" transform="translate(-0.367 -0.401)" fill="#ff8080" stroke="#ff8080" stroke-width="0.6"/>
    <path id="Path_15037" data-name="Path 15037" d="M53.065,33.4a.879.879,0,0,0-1.213-.246l-2.638,1.759a.879.879,0,0,0,.308,1.609l1.363.273A19.345,19.345,0,0,1,36.816,50.86l-.308-1.609a.879.879,0,0,0-1.574-.378l-1.847,2.594a.879.879,0,0,0,.193,1.222l2.568,1.864a.879.879,0,0,0,1.389-.879l-.167-1.046A21.1,21.1,0,0,0,52.608,37.116l1.31.264a.879.879,0,0,0,.879-1.345Z" transform="translate(-3.611 -3.621)" fill="#ff8080" stroke="#ff8080" stroke-width="0.6"/>
  </g>
</svg>
