<svg xmlns="http://www.w3.org/2000/svg" width="19.526" height="22.216" viewBox="0 0 19.526 22.216">
  <g id="location" transform="translate(0)">
    <g id="Group_9700" data-name="Group 9700" transform="translate(0)">
      <g id="Group_9699" data-name="Group 9699">
        <path id="Path_15041" data-name="Path 15041" d="M44.472,14.678c2.364-3.71,2.067-3.247,2.135-3.343A7.106,7.106,0,0,0,47.922,7.2a7.159,7.159,0,1,0-12.965,4.185l2.1,3.291C34.812,15.023,31,16.05,31,18.311c0,.824.538,2,3.1,2.914a20.543,20.543,0,0,0,6.662.991c4.687,0,9.763-1.322,9.763-3.905C50.526,16.049,46.718,15.024,44.472,14.678Zm-8.428-4.007-.022-.033a5.858,5.858,0,1,1,9.529-.066c-.063.083.264-.425-4.788,7.5Zm4.719,10.243c-5.12,0-8.461-1.5-8.461-2.6,0-.738,1.717-1.952,5.521-2.426l2.391,3.752a.651.651,0,0,0,1.1,0L43.7,15.885c3.8.473,5.521,1.687,5.521,2.426C49.224,19.4,45.913,20.914,40.763,20.914Z" transform="translate(-31)" fill="#ff8080"/>
      </g>
    </g>
    <g id="Group_9702" data-name="Group 9702" transform="translate(6.508 3.949)">
      <g id="Group_9701" data-name="Group 9701">
        <path id="Path_15042" data-name="Path 15042" d="M184.254,91a3.254,3.254,0,1,0,3.254,3.254A3.258,3.258,0,0,0,184.254,91Zm0,5.207a1.953,1.953,0,1,1,1.953-1.953A1.955,1.955,0,0,1,184.254,96.207Z" transform="translate(-181 -91)" fill="#ff8080"/>
      </g>
    </g>
  </g>
</svg>
