<svg xmlns="http://www.w3.org/2000/svg" width="61.6" height="61.6" viewBox="0 0 61.6 61.6">
  <g id="messenger" transform="translate(0.3 0.3)">
    <g id="Group_9648" data-name="Group 9648" transform="translate(12.708)">
      <path id="Path_15007" data-name="Path 15007" d="M24.063,45.75h-.508a1.4,1.4,0,0,1-.763-1.271v-8.9H20.25a1.271,1.271,0,1,1,0-2.542h3.813a1.2,1.2,0,0,1,1.271,1.271v6.354l5.337-7.117a1.32,1.32,0,0,1,1.017-.508H49.479a1.2,1.2,0,0,0,1.271-1.271V3.813a1.2,1.2,0,0,0-1.271-1.271H8.813A1.2,1.2,0,0,0,7.542,3.813V21.6a1.2,1.2,0,0,1-1.271,1.271A1.2,1.2,0,0,1,5,21.6V3.813A3.909,3.909,0,0,1,8.813,0H49.479a3.909,3.909,0,0,1,3.813,3.813V31.771a3.909,3.909,0,0,1-3.812,3.813H32.2l-7.371,9.658c0,.254-.254.508-.763.508Z" transform="translate(-5)" fill="#05385c" stroke="#05385c" stroke-width="0.6"/>
    </g>
    <g id="Group_9649" data-name="Group 9649" transform="translate(6.354 29.229)">
      <path id="Path_15008" data-name="Path 15008" d="M10.125,26.75A7.489,7.489,0,0,1,2.5,19.125,7.489,7.489,0,0,1,10.125,11.5a7.489,7.489,0,0,1,7.625,7.625A7.489,7.489,0,0,1,10.125,26.75Zm0-12.708a5.083,5.083,0,1,0,5.083,5.083A5.1,5.1,0,0,0,10.125,14.042Z" transform="translate(-2.5 -11.5)" fill="#05385c" stroke="#05385c" stroke-width="0.6"/>
    </g>
    <g id="Group_9650" data-name="Group 9650" transform="translate(0 48.292)">
      <path id="Path_15009" data-name="Path 15009" d="M26.688,31.708a1.2,1.2,0,0,1-1.271-1.271V25.354A3.909,3.909,0,0,0,21.6,21.542H6.354a3.909,3.909,0,0,0-3.813,3.812v5.083a1.2,1.2,0,0,1-1.271,1.271A1.2,1.2,0,0,1,0,30.438V25.354A6.292,6.292,0,0,1,6.354,19H21.6a6.292,6.292,0,0,1,6.354,6.354v5.083A1.2,1.2,0,0,1,26.688,31.708Z" transform="translate(0 -19)" fill="#05385c" stroke="#05385c" stroke-width="0.6"/>
    </g>
    <g id="Group_9651" data-name="Group 9651" transform="translate(35.583 22.875)">
      <path id="Path_15010" data-name="Path 15010" d="M15.271,14.083A1.2,1.2,0,0,1,14,12.813V10.271a1.271,1.271,0,0,1,2.542,0v2.542A1.2,1.2,0,0,1,15.271,14.083Z" transform="translate(-14 -9)" fill="#05385c" stroke="#05385c" stroke-width="0.6"/>
    </g>
    <g id="Group_9652" data-name="Group 9652" transform="translate(31.771 10.167)">
      <path id="Path_15011" data-name="Path 15011" d="M18.346,19.25H13.771a1.271,1.271,0,1,1,0-2.542h4.575a2,2,0,0,0,2.033-2.033,1.871,1.871,0,0,0-2.033-2.033H17.075A4.556,4.556,0,0,1,12.5,8.067,4.074,4.074,0,0,1,16.821,4H21.4a1.2,1.2,0,0,1,1.271,1.271A1.2,1.2,0,0,1,21.4,6.542H16.821a2,2,0,0,0-2.033,2.033,1.871,1.871,0,0,0,2.033,2.033h1.271a4.556,4.556,0,0,1,4.575,4.575A4.074,4.074,0,0,1,18.346,19.25Z" transform="translate(-12.5 -4)" fill="#05385c" stroke="#05385c" stroke-width="0.6"/>
    </g>
    <g id="Group_9653" data-name="Group 9653" transform="translate(35.583 7.625)">
      <path id="Path_15012" data-name="Path 15012" d="M15.271,8.083A1.2,1.2,0,0,1,14,6.813V4.271a1.271,1.271,0,0,1,2.542,0V6.813A1.2,1.2,0,0,1,15.271,8.083Z" transform="translate(-14 -3)" fill="#05385c" stroke="#05385c" stroke-width="0.6"/>
    </g>
  </g>
</svg>
