<svg xmlns="http://www.w3.org/2000/svg" width="62" height="62" viewBox="0 0 62 62">
  <g id="shuttle" transform="translate(0 0)">
    <path id="Path_15020" data-name="Path 15020" d="M61.927,4.629A4.819,4.819,0,0,0,57.371.073C52.4-.2,42.677.066,33.379,4.875A47.1,47.1,0,0,0,19.625,16.28l-.146.178-9.08.7a4.793,4.793,0,0,0-3.652,2.149L.552,28.677a3.32,3.32,0,0,0,2.261,5.112l7.65,1.185c-.027.149-.054.3-.079.446a4.817,4.817,0,0,0,1.35,4.19L22.39,50.265A4.829,4.829,0,0,0,25.8,51.68a4.748,4.748,0,0,0,.782-.065c.149-.025.3-.052.446-.079l1.185,7.65a3.317,3.317,0,0,0,5.112,2.261l9.369-6.195A4.792,4.792,0,0,0,44.84,51.6l.7-9.079.178-.146A47.1,47.1,0,0,0,57.125,28.621c4.81-9.3,5.073-19.023,4.8-23.992ZM40.688,52.223l-8.962,5.925-1.155-7.455a40.691,40.691,0,0,0,11.1-5.287l-.457,5.915a1.183,1.183,0,0,1-.531.9ZM24.958,47.7,14.3,37.041a1.177,1.177,0,0,1-.336-1.022,31.248,31.248,0,0,1,1.418-5.4L31.373,46.611a31.379,31.379,0,0,1-5.393,1.422,1.178,1.178,0,0,1-1.022-.336ZM10.679,20.781l5.915-.457a40.688,40.688,0,0,0-5.287,11.1L3.851,30.274l5.926-8.962A1.183,1.183,0,0,1,10.679,20.781Zm32.714,18.8a41.646,41.646,0,0,1-8.408,5.5l-18.07-18.07a42.366,42.366,0,0,1,5.5-8.408A43.349,43.349,0,0,1,35.048,8.1C43.582,3.687,52.573,3.45,57.173,3.7A1.191,1.191,0,0,1,58.3,4.827c.251,4.6.013,13.591-4.4,22.125A43.349,43.349,0,0,1,43.393,39.585Z" transform="translate(0 0)" fill="#fff"/>
    <path id="Path_15021" data-name="Path 15021" d="M284.8,104.473a9.075,9.075,0,1,0-6.422-2.656A9.056,9.056,0,0,0,284.8,104.473Zm-3.853-12.93a5.449,5.449,0,1,1-1.6,3.853A5.431,5.431,0,0,1,280.952,91.543Z" transform="translate(-242.335 -75.866)" fill="#fff"/>
    <path id="Path_15022" data-name="Path 15022" d="M2.118,352.528A1.81,1.81,0,0,0,3.4,352l5.93-5.93A1.816,1.816,0,0,0,6.764,343.5l-5.93,5.93a1.816,1.816,0,0,0,1.284,3.1Z" transform="translate(-0.265 -301.434)" fill="#fff"/>
    <path id="Path_15023" data-name="Path 15023" d="M14.5,388.378a1.816,1.816,0,0,0-2.569,0l-11.4,11.4A1.816,1.816,0,1,0,3.1,402.348l11.4-11.4A1.816,1.816,0,0,0,14.5,388.378Z" transform="translate(-0.001 -340.88)" fill="#fff"/>
    <path id="Path_15024" data-name="Path 15024" d="M96.525,433.258l-5.93,5.93a1.816,1.816,0,1,0,2.569,2.569l5.93-5.93a1.816,1.816,0,0,0-2.569-2.569Z" transform="translate(-79.157 -380.326)" fill="#fff"/>
  </g>
</svg>
