<svg xmlns="http://www.w3.org/2000/svg" width="22.724" height="22.724" viewBox="0 0 22.724 22.724">
  <g id="time" transform="translate(0 0)">
    <g id="Group_9696" data-name="Group 9696" transform="translate(0 0)">
      <g id="Group_9695" data-name="Group 9695">
        <path id="Path_15039" data-name="Path 15039" d="M11.362,0A11.362,11.362,0,1,0,22.724,11.362,11.362,11.362,0,0,0,11.362,0Zm0,21.1A9.739,9.739,0,1,1,21.1,11.362,9.739,9.739,0,0,1,11.362,21.1Z" fill="#ff8080"/>
      </g>
    </g>
    <g id="Group_9698" data-name="Group 9698" transform="translate(4.058 4.058)">
      <g id="Group_9697" data-name="Group 9697">
        <path id="Path_15040" data-name="Path 15040" d="M92.637,85.333a.812.812,0,0,0-.812.812v5.681H86.145a.812.812,0,1,0,0,1.623h6.493a.812.812,0,0,0,.812-.812V86.145A.812.812,0,0,0,92.637,85.333Z" transform="translate(-85.333 -85.333)" fill="#ff8080"/>
      </g>
    </g>
  </g>
</svg>
