<svg xmlns="http://www.w3.org/2000/svg" width="52.623" height="46.044" viewBox="0 0 52.623 46.044">
  <g id="user" transform="translate(0 0)">
    <path id="Path_15025" data-name="Path 15025" d="M96.3,21.934a10.963,10.963,0,1,1,10.963-10.963A10.975,10.975,0,0,1,96.3,21.934ZM96.3,3.3a7.674,7.674,0,1,0,7.674,7.674A7.683,7.683,0,0,0,96.3,3.3Zm0,0" transform="translate(-76.562 -0.008)" fill="#ff8080"/>
    <path id="Path_15026" data-name="Path 15026" d="M37.822,275.741H1.644A1.645,1.645,0,0,1,0,274.1v-7.674a10.427,10.427,0,0,1,10.415-10.415H29.052a10.427,10.427,0,0,1,10.415,10.415V274.1A1.645,1.645,0,0,1,37.822,275.741ZM3.289,272.452H36.178v-6.03a7.134,7.134,0,0,0-7.126-7.126H10.415a7.134,7.134,0,0,0-7.126,7.126Zm0,0" transform="translate(0 -229.697)" fill="#ff8080"/>
    <path id="Path_15027" data-name="Path 15027" d="M318.949,189.965H300.312a1.644,1.644,0,0,1,0-3.289h18.637a1.644,1.644,0,0,1,0,3.289Zm0,0" transform="translate(-267.972 -167.49)" fill="#ff8080"/>
    <path id="Path_15028" data-name="Path 15028" d="M396.316,122.138a1.645,1.645,0,0,1-1.162-2.809l7.608-7.608-7.608-7.608a1.645,1.645,0,1,1,2.327-2.326l8.77,8.77a1.645,1.645,0,0,1,0,2.327l-8.77,8.77a1.634,1.634,0,0,1-1.164.485Zm0,0" transform="translate(-354.109 -90.894)" fill="#ff8080"/>
  </g>
</svg>
